<?xml version="1.0" encoding="utf-8"?>
<!-- Generator: Adobe Illustrator 24.0.1, SVG Export Plug-In . SVG Version: 6.00 Build 0)  -->
<svg version="1.1" id="Calque_1" xmlns="http://www.w3.org/2000/svg" xmlns:xlink="http://www.w3.org/1999/xlink" x="0px" y="0px"
	 viewBox="0 0 595.28 841.89" style="enable-background:new 0 0 595.28 841.89;" xml:space="preserve">
<style type="text/css">
	.st0{fill:#78BC69;}
</style>
<g>
	<path class="st0" d="M438.04,274.33c-35.76-32.96-80.24-49.44-133.36-49.44c-55.84,0-103.44,18.72-142.72,56.24
		c-39.28,37.52-58.96,84.16-58.96,140c0,53.52,18.72,99.52,56.08,138.08c37.52,38.56,87.92,57.84,151.36,57.84
		c38.24,0,75.76-7.84,112.56-23.6c12-5.12,17.84-18.88,12.96-30.96c-5.04-12.48-19.28-18.24-31.68-12.96
		c-32,13.76-63.36,20.64-93.92,20.64c-48.64,0-86.32-14.8-113.04-44.48c-26.64-29.6-40-64.4-40-104.32
		c0-43.36,14.32-79.52,42.88-108.56c28.48-28.96,63.6-43.52,105.2-43.52c38.32,0,70.72,11.92,97.12,35.76
		c26.4,23.84,39.6,53.84,39.6,90c0,24.72-6.08,45.36-18.16,61.76c-12.08,16.48-24.64,24.64-37.68,24.64
		c-7.04,0-10.56-3.76-10.56-11.36c0-6.16,0.48-13.36,1.36-21.68l14.88-121.68h-51.2l-3.28,11.92c-13.04-10.64-27.36-16-42.88-16
		c-24.64,0-45.76,9.84-63.28,29.44c-17.6,19.6-26.32,44.88-26.32,75.76c0,30.16,7.76,54.56,23.36,73.04
		c15.6,18.56,34.32,27.76,56.24,27.76c19.6,0,36.32-8.24,50.24-24.64c10.48,15.76,25.92,23.6,46.32,23.6
		c30,0,55.92-13.04,77.76-39.2c21.84-26.08,32.8-57.6,32.8-94.48C491.72,347.21,473.88,307.29,438.04,274.33L438.04,274.33z
		 M320.12,458.41c-9.04,12.16-19.84,18.32-32.4,18.32c-8.56,0-15.44-4.48-20.64-13.44c-5.28-8.96-7.92-20.08-7.92-33.44
		c0-16.48,3.68-29.76,11.04-39.84c7.36-10.08,16.48-15.2,27.36-15.2c9.44,0,17.84,3.76,25.2,11.36c7.36,7.6,11.04,17.68,11.04,30.32
		C333.72,432.25,329.16,446.17,320.12,458.41L320.12,458.41z M320.12,458.41"/>
</g>
</svg>
