<?xml version="1.0" encoding="utf-8"?>
<!-- Generator: Adobe Illustrator 24.0.1, SVG Export Plug-In . SVG Version: 6.00 Build 0)  -->
<svg version="1.1" id="Calque_1" xmlns="http://www.w3.org/2000/svg" xmlns:xlink="http://www.w3.org/1999/xlink" x="0px" y="0px"
	 viewBox="0 0 595.28 841.89" style="enable-background:new 0 0 595.28 841.89;" xml:space="preserve">
<style type="text/css">
	.st0{fill:#424242;}
</style>
<g>
	<path class="st0" d="M377,405.89H245v-16.22c0-28.67,23.33-52,52-52s52,23.33,52,52v19.28c0,6.63,5.37,12,12,12
		c6.63,0,12-5.37,12-12v-19.28c0-41.91-34.09-76-76-76s-76,34.09-76,76v16.22h-4c-11.05,0-20,8.95-20,20v98.67
		c0,11.05,8.95,20,20,20h160c11.05,0,20-8.95,20-20v-98.67C397,414.84,388.05,405.89,377,405.89L377,405.89z M273,462.28
		c0-13.25,10.75-24,24-24c13.25,0,24,10.75,24,24c0,8.88-4.83,16.63-12,20.78v35.22h-24v-35.22C277.83,478.91,273,471.16,273,462.28
		L273,462.28z M273,462.28"/>
</g>
</svg>
